<svg width="2085" height="200" viewBox="0 0 2085 200" fill="none" xmlns="http://www.w3.org/2000/svg">
<path d="M0 3L700.615 3C722.706 3 740.615 20.9086 740.615 43V86C740.615 103.673 754.942 118 772.615 118H1102.59H1381.16C1398.83 118 1413.16 103.673 1413.16 86V43C1413.16 20.9086 1431.07 3 1453.16 3L2085 3" stroke="#2D6DEC" stroke-width="5"/>
<path d="M0 28H700.615C722.706 28 740.615 45.9086 740.615 68V111C740.615 128.673 754.942 143 772.615 143H1102.59H1381.16C1398.83 143 1413.16 128.673 1413.16 111V68C1413.16 45.9086 1431.07 28 1453.16 28H2085" stroke="#FEE181" stroke-width="5"/>
<path d="M0 54H700.615C722.706 54 740.615 71.9086 740.615 94V137C740.615 154.673 754.942 169 772.615 169H1102.59H1381.16C1398.83 169 1413.16 154.673 1413.16 137V94C1413.16 71.9086 1431.07 54 1453.16 54H2085" stroke="#E866DC" stroke-width="5"/>
<path d="M0 82H700.615C722.706 82 740.615 99.9086 740.615 122V165C740.615 182.673 754.942 197 772.615 197H1102.59H1381.16C1398.83 197 1413.16 182.673 1413.16 165V122C1413.16 99.9086 1431.07 82 1453.16 82H2085" stroke="#2CABE0" stroke-width="5"/>
</svg>
